<?xml version='1.0' encoding='utf-8'?>
<svg xmlns="http://www.w3.org/2000/svg" version="1.1" id="Ebene_1" x="0px" y="0px" viewBox="0 0 1183.1 749.1" style="enable-background:new 0 0 1183.1 749.1;"> <style type="text/css"> .st0{opacity:0.9;} .st1{fill:#F7FDF5;} .st2{fill:#F1FBED;} .st3{fill:#F6FDF4;} .st4{fill:#D6F4CB;} .st5{fill:#DCF6D3;} .st6{fill:#D8F5CE;} .st7{fill:#DFF7D6;} .st8{fill:#E8F9E2;} .st9{fill:#E4F8DD;} .st10{fill:#ECFAE6;} .st11{fill:#F1FBEE;} .st12{fill:#D1D1D1;} .st13{fill:#141215;} .st14{fill:#FFFFFF;stroke:#141215;stroke-width:2;} .st15{fill:#1A171B;} .st16{fill:#FFFFFF;stroke:#1A171B;stroke-width:2;stroke-linecap:round;stroke-linejoin:round;} .st17{fill:none;stroke:#1A171B;stroke-width:2;stroke-linecap:round;stroke-linejoin:round;} .st18{fill:#ADADAC;stroke:#1A171B;stroke-width:2;} .st19{fill:none;stroke:#1A171B;stroke-width:2;} .st20{opacity:0.3;fill:#F5F5F5;} .st21{fill:#FF0000;stroke:#000000;stroke-width:2;} .st22{fill:#C90000;stroke:#000000;stroke-width:2;} .st23{fill:#E00505;stroke:#000000;stroke-width:2;} .st24{fill:#353535;stroke:#000000;stroke-width:2;} .st25{stroke:#000000;stroke-width:2;} .st26{fill:#232323;stroke:#000000;stroke-width:2;} .st27{fill:none;stroke:#000000;stroke-width:2;} .st28{fill:#141215;stroke:#141215;stroke-width:2;stroke-linecap:round;stroke-linejoin:round;} .st29{fill:#936925;stroke:#141215;stroke-width:2;} .st30{fill:#724D17;stroke:#141215;stroke-width:2;} .st31{fill:#FFFFFF;stroke:#1A171B;stroke-width:2;} </style> <g> <g> <g> <g class="st0"> <g class="st0"> <path class="st1" d="M765.7,391.6c-14.7-0.5-29.4-1-44.2-1.6c1.5,1-3.1,1.8-15.3,2.5c-25.7-0.1,1.6,1.2,57.8,3.1 c56.2,1.9,141.2,4.4,230.8,7.7C1002.6,401.8,945.3,397.9,765.7,391.6z"/> <path class="st2" d="M93.9,353.4c-10.5-0.1-21-0.4-31.3-0.6C52.3,352.5,42,352.2,32,352c2.3,0.2,4.6,0.4,6.6,0.5 C57.3,352.9,76,353.2,93.9,353.4z"/> <path class="st1" d="M263.5,371.4c55.1,1.1,100.1,1.8,141.5,2.7c10.4,0.3,20.5,0.5,30.5,0.7c10,0.3,19.9,0.5,29.8,0.9 c19.8,0.7,39.5,1.4,60.1,2.1c-22.5-1.3-42.8-2.6-60.5-3.8c-8.8-0.6-17-1.2-24.3-1.7c-7.4-0.5-14-1.1-19.8-1.5 c-30.1-2.2-73.6-4.3-124.4-6.1c-35.2-0.2-85.7-0.5-130.8-1.6c23.7,0.9,23.7,1,56.4,1.2c-16.3-0.1-40.8-0.3-61.2-0.6 c-10.2-0.1-19.4-0.3-26-0.4c-6.6-0.1-10.7-0.2-10.7-0.2c7.3,0.8,45.1,2.3,92.2,3.4c47.1,1.1,103.5,2,148.1,2.8 c-53.8-0.6-129.5-0.7-191-1.4c16.6,0.7,34.3,1.5,52.8,2.2c23.8,0.5,48.6,1,69.9,1.4L263.5,371.4z"/> <path class="st1" d="M627.1,420.6c9.3-0.5,18.3-1.1,26.8-1.5c17-1.6,35.2-3.3,54.2-5.1c9.5-0.9,19.1-1.8,28.9-2.8 c4.9-0.5,9.9-0.9,14.9-1.4c5-0.4,10-0.9,15-1.3c-3.8,0.2-7.6,0.4-11.4,0.7c-3.8,0.2-7.7,0.5-11.5,0.7c-7.6,0.5-15.2,1-22.9,1.5 c-15.3,1.1-30.6,2-46.1,3c-19,1.7-41.9,3.8-64.8,5.6c-2.7,0-5.4,0-8.6,0c3.5-0.6,9-1.2,27.7-2.8c-1.2,0.1-2.4,0.1-3.5,0.2 c-8.9,0.5-17.7,1-26.6,1.5c-8.9,0.5-17.9,0.9-27.1,1.4c5.5-0.1,10.5-0.1,15.4-0.2c-54.2,3.5-109.6,5.8-122.6,7.5 c3.2,0.1,10.8,0,21.3-0.3c10.5-0.3,24.1-0.8,39.3-1.4C555.9,424.4,593.3,422.5,627.1,420.6z"/> <path class="st3" d="M592.5,490.9c-6.6-1.2-5.4-2.4,8.6-3.5c-32.6,0-72.7-0.7-112.9-1.7c-20.1-0.5-40.1-1-59.3-1.5 c-19.1-0.4-37.3-0.7-53.6-0.9c37.3-2.5-78.6-6.9-212.3-11.4l0.2-25.7c60.8,1,125.3,0.8,180.7,0c55.4-0.9,101.5-2.2,125.6-2.6 c64.4-1.2,159.8-6,259.4-13.4c12.4-0.9,25-1.8,37.6-2.6c12.6-0.8,25.1-1.6,37.7-2.4c25.1-1.6,50-3.3,74.2-5.6 c24.3-2.3,48-5,70.5-8.8c22.5-3.8,44-8.5,63.3-15.5l-0.1-0.8c-2.1-0.1-3.9-0.2-5.7-0.3c-33.5-0.6-26.8,0.6-95.2-1.4 c30,1.5,63.7,2.8,100.9,4.1l-0.7-3.8c-2.9,1-5.8,2-8.7,3.1c-1.5,0.5-2.9,1-4.4,1.6c-1.5,0.4-3,0.9-4.5,1.3 c-3,0.9-6.1,1.8-9.1,2.7c-3.1,0.8-6.2,1.6-9.4,2.3c-2.4,0.6-4.8,1.2-7.2,1.8c-2.4,0.5-4.9,1-7.3,1.5c-2.5,0.5-4.9,1-7.4,1.6 c-2.5,0.5-5,0.9-7.5,1.4c2.5-0.5,5-0.9,7.5-1.4c2.5-0.5,4.9-1,7.4-1.6c2.5-0.5,4.9-1,7.3-1.5c2.4-0.6,4.8-1.2,7.2-1.8 c3-0.8,6.1-1.5,9.1-2.3c3-0.9,6-1.8,9-2.7c1.5-0.4,3-0.9,4.5-1.3c1.5-0.5,3-1,4.5-1.6c3-1.1,6-2.1,9-3.2l0.7,3.9 c-26-0.8-53.1-1.6-83.9-2.6c15.4,0.6,25.8,1.1,21.5,1.3c-8.6,0-18.6-0.2-29.5-0.5c31.7,1.5,62.8,3.2,91.8,4.8l-1.7-9.7 c-6.5,2.1-12.8,4.4-19.4,6c-1.6,0.4-3.2,0.9-4.8,1.3c-1.6,0.4-3.2,0.9-4.8,1.2c-3.2,0.7-6.4,1.4-9.6,2.1 c-1.6,0.3-3.1,0.7-4.7,1c-1.6,0.3-3.2,0.6-4.7,0.8c-3.1,0.6-6.2,1.1-9.3,1.7c-6.2,1-12.2,1.8-18.1,2.7 c-23.6,3.2-45.1,4.9-63.2,6.1c-18.2,1.2-33.1,1.7-43.8,1.9c-10.7,0.1-17.3-0.2-18.7-0.9c-14.8,1-29.6,2-44.2,3 c-11.2,0.8-22.1,1.6-32.3,2.4c-10.2,0.8-20,1.5-29.4,2.2c-18.7,1.3-35.6,2.5-50.8,3.5c-7.6,0.5-14.8,0.9-21.6,1.4 c-6.8,0.4-13.2,0.7-19.1,1.1c-12,0.7-22.4,1.2-31.3,1.6c-17.9,0.8-29.9,1.1-37,1.1c-7.1,0-9.3-0.3-7.4-0.9 c-54.5,3.2-110.8,5.7-163.3,7.3c-52.5,1.6-101.1,2.3-140.4,2.4c-11.8-0.1-23.5-0.1-35.1-0.2c-11.5-0.1-22.9-0.3-34.1-0.4 l-0.3,41.3c50.6,1.7,99.1,3.4,146.8,5c47.7,1.7,94.7,3.4,142,5.1c40.2,0.4,79.4,0.4,113.7,0.2 C574,490.4,583.1,490.7,592.5,490.9z"/> <path class="st4" d="M1161,681.8c0.8,0,1.7,0.1,2.9,0.1c0.2,0,0.3,0,0.6,0c0.1,0,0.1,0,0.2,0l0.2,0l0.3-0.1l0.1,0l0.2-0.1 c0.2-0.1,0.3-0.1,0.5-0.2l0.1-0.1c0.1,0,0.4-0.2,0.6-0.4c0.4-0.3,0.8-0.8,1.1-1.3c0.1-0.3,0.2-0.3,0.3-0.8 c0.2-0.5,0.2-1.2,0.1-2c-0.1-0.7-0.5-1.4-0.9-1.9c-0.5-0.6-0.6-0.5-0.6-0.6c-0.3-0.3-0.7-0.5-1.1-0.6l-0.2-0.1l-0.1,0l-0.3-0.1 l-0.1,0l-0.4-0.1l-0.2,0l-0.3,0c-0.2,0-0.3,0-0.5-0.1c-0.6-0.1-1.2-0.1-1.9-0.2c-2.5-0.2-5.5-0.4-8.9-0.6 c-3.4-0.2-7.2-0.3-11.6-0.4c-2.2,0-4.4-0.1-6.8-0.1c-0.6,0-1.2,0-1.8,0c-0.7,0-1.2,0-2.1,0.1c-0.1,0-0.2,0-0.5,0l-0.2,0l-0.2,0 l-0.3,0.1l-0.2,0.1c-0.1,0,0,0-0.4,0.1c-0.5,0.2-1.1,0.4-1.6,0.8c1.6,0-4.2-0.8-1.6,9.1c2.7,2.8,1.5,1.3,2.5,2.1 c0.4,0.2,1.2,0.4,1.3,0.5c0.1,0,0.3,0.1,0.4,0.1l0.5,0.1l0.2,0l0.3,0l0.4,0c0.4,0,0.7,0,1.1,0.1c0.7,0,1.3,0.1,2,0.1l-0.3-13.3 c-14.3-0.2-31.8-0.4-52.3-0.4c-10.2,0-21.2-0.2-32.9-0.3c-11.7-0.1-24-0.2-37-0.3c-51.9-0.8-114.1-2-183.4-4.5 c-69.3-2.4-145.8-6-226.4-9.7c-80.7-3.7-165.6-7.3-251.8-9.3c-11.3-0.3-22.5-0.5-33.8-0.8c-11.3-0.2-22.5-0.4-33.8-0.7 c-22.6-0.4-45.2-0.5-68-0.8l-0.1,35.3c123.7,0.8,247.9,0,373.4-3.4c125.5-3.4,252.4-9.4,381.3-18.9l-0.6-38.3 c-124.8-5.7-254.6-7.7-386.3-11.2c31.7,2.2,35.5,3.8,7.4,4.5c-7,0.2-16,0.3-27.1,0.3c-11.1,0-24.2,0-39.4-0.2 c-30.4-0.4-69.3-1.1-117-2.8c-36.6-1.3-84-4.5-131.4-7.3c-23.7-1.4-47.3-2.7-69.6-3.6c-22.2-0.9-43-1.4-61-1.6l0.7,24.8 c23.7-1.4,42.3-2.6,52.7-3.6c57-4,103.4-7.2,145.3-10c21-1.4,40.8-2.7,60.2-4c19.4-1.3,38.5-2.5,57.9-3.7 c77.7-4.9,161.4-9.8,299.3-16.9c-47.4,1.3-53.4-0.4-109.7,2.1c-68.3,2.3-144.9,5.2-229.5,9.2c-84.6,4-177,9.2-276.9,16.3 l-0.1-3.6c21.5,0,43.6,0.3,66,0.9c32.6,0.8,82.2,4.4,104.4,6.6c11.1,1.1,15.3,1.8,7.1,1.8c-8.2,0-28.8-1-67.3-2.8 c48.2,2.7,92.4,5.7,134,7.8c41.6,2.1,80.6,3.5,118,4.6c74.9,2.2,143.9,3.3,216.6,4.9c92.7,1.9,150.7,3.8,186.6,5.5 c9,0.4,16.5,0.8,22.9,1.2c6.4,0.4,11.6,0.8,15.7,1.1c8.4,0.7,12.7,1.2,14.6,1.7c7.6,1.9-23.9,2.7,4.4,5.6l-0.3-16.8 c-5.5,0-14.9,0.3-28.4,0.9c-5.4,0.2-11.4,0.4-17.9,0.7c-6.5,0.3-13.6,0.6-21.2,0.9c-15.2,0.7-32.3,1.5-51.2,2.4 c-54.4,3.8-108.2,7-161.5,9.7c-53.3,2.7-106.1,4.9-158.6,6.7c-52.5,1.8-104.8,3.2-157.1,4.2c-52.2,1-104.4,1.7-156.7,2.1l0,9.1 c64.5-0.4,129.2,0.1,194.6,1.4c65.2,1.2,160.1,6.8,225.4,8.6c22.6,0.8,45.9,1.5,69.6,2.2c23.7,0.7,47.7,1.3,71.8,1.8 c12,0.3,24.1,0.4,36.1,0.6c6,0.1,12,0.2,18,0.3c6,0.1,11.9,0.2,17.9,0.2c23.7,0.1,47.1,0.4,69.9,0.2c11.4,0,22.5-0.1,33.5-0.1 c11-0.2,21.7-0.3,32.2-0.5c10.5-0.2,20.7-0.4,30.6-0.5c9.9-0.3,19.5-0.6,28.8-0.9c9.3-0.3,18.2-0.6,26.7-0.8 c8.5-0.3,16.6-0.7,24.3-1.1c15.3-0.8,28.9-1.4,40.4-2l0.1,3.6c-1,0-2,0.1-3.1,0l-0.2,0c-0.1,0-0.1,0-0.4,0l-0.1,0 c0,0-0.2,0-0.5-0.2c0.5,1.3-1.7-2-0.3-3.1c0.2-0.2,0.5-0.3,0.7-0.3c0.1,0,0.2,0,0.2-0.1l0.1,0l0.3,0l0.8-0.1 c0.5,0,1-0.1,1.5-0.1c1.9-0.1,3.7-0.3,5.5-0.4c3.5-0.2,6.7-0.4,9.7-0.6c5.9-0.3,10.6-0.6,14.3-0.8c0.5,0,0.9,0,1.4,0l0.4,0 c0.2,0,0.2,0,0.6,0.1c0,0,0.2,0,0.2,0.1l0.1,0l0.1,0c0.1,0,0.2,0.1,0.3,0.1c0.2,0.1,0.4,0.2,0.5,0.3c-0.1,0,0.4,0.3,0.8,1 c0.4,0.6,0.4,1.5,0.2,2.1c-0.1,0.5-0.2,0.6-0.4,0.8c-0.1,0.2-0.3,0.5-0.5,0.6c-0.1,0.2-0.6,0.4-0.5,0.4l-0.1,0.1 c-0.1,0.1-0.3,0.2-0.4,0.2l-0.2,0.1l-0.2,0.1c-0.2,0-0.3,0.1-0.5,0.1c-0.9,0.2-1.5,0.3-2.1,0.3c-1.1,0.2-1.9,0.3-2.4,0.4 C1158.6,681.6,1159.1,681.8,1161,681.8z"/> <path class="st5" d="M731.6,521.6c74.9,1.9,156.5,4.8,241.9,10.8c-128.1-10.7-254-15.5-378.8-20.9c-16.9-0.3-34.2-0.5-51.2-0.8 c-17.1-0.3-33.9-0.5-49.8-0.6c12.1,0.5,24,0.9,35.6,1.3c11.6,0.5,23,1,34.2,1.5c22.2,1,43.5,2,63.5,2.9 C667.1,517.6,702.4,519.6,731.6,521.6z"/> <path class="st5" d="M725.3,644.7c17.8-1.1-1.4-2.4-35.9-3.9c-34.5-1.5-84.2-3.3-127.2-5.8c-45.6-0.8-88-1.9-127.6-3.4 c-39.6-1.4-76.4-3.5-110.7-5.7c-34.3-2.1-66.2-4.2-96.1-5.9c-29.9-1.7-57.8-2.9-84.1-3.7l-0.3-11.8c7.9-0.3,15.6-0.6,23.2-0.9 c8.8-1.4,89-5.7,121.5-7.7c-8.8,1.3,62.3-1.4-2.8,2.9c65.2-4.3,136.4-6.6,177.8-9.7c103.8-4.1-82.8,6.2-11.7,4.1 c91.8-5.6,179.5-10,257.2-13.5c77.7-3.5,145.5-6.3,197.6-8.1c52.1-1.8,88.6-2.8,103.7-2.5c15.1,0.3,8.9,1.8-24.4,4.6 c-50.4,4.6-148.3,10.4-207.4,15.8c-29.6,2.7-90.4,5.8-160.8,8.9c-70.4,3.1-150.5,6.3-218.6,9.5c38.6-0.4,231.3-8.7,124.6-1.9 c-51.8,3-106.5,6.3-156.9,9.6c-25.2,1.7-49.4,3.3-71.7,4.9c-11.1,0.8-21.8,1.6-31.9,2.3c-10.1,0.8-19.5,1.5-28.3,2.2 c141.3-8.5,297.8-16.3,438-23.3c140.3-7,264.2-13.1,340.2-16.9c22.5-1.1,44.9-2.1,66.7-3.1l0.9-39.1 c-36.1-4.1-71.5-7.5-106.8-10.5c-85.3-6-167-8.9-241.9-10.8c-29.2-2.1-64.6-4-104.6-5.9c-20-0.9-41.2-1.9-63.5-2.9 c-11.1-0.5-22.5-1-34.2-1.5c-11.7-0.4-23.5-0.9-35.6-1.3c-38.9-0.4-72.3-0.3-89.5,0.2c-23,0.3-18.6,0.9,2.4,1.8 c21,0.9,58.5,2.1,101.6,3.8c43,1.8,91.6,3.8,134.8,5.6c43.2,1.8,81,3.7,102.5,5.1c-45.7-1.5-86.6-2.6-123-3.5 c-36.4-0.9-68.2-1.7-95.9-2.2c-55.3-1-93.5-0.9-116.3-0.3c-22.8,0.5-30.4,1.5-24.4,2.8c6,1.3,25.4,2.8,56.5,4.6 c43,2.4,88.3,4.8,141.7,7.7c53.4,2.7,114.9,5.8,190.4,9.6c40,1.9,88.2,4.3,138.5,7.4c50.3,3.1,102.8,7,151.6,11.4 c-8.1-0.7-20.3-1.9-33.7-2.9c-6.7-0.5-13.6-1.1-20.5-1.6c-6.9-0.5-13.7-0.9-20.1-1.4c-12.8-0.9-23.8-1.5-30.1-1.8 c-6.3-0.3-8-0.3-2.1,0.3c45,3.6,83.6,7.5,119.6,11.8l0.3-12c-111.6,4.8-200.5,7.7-383.7,17c8.9-1.2-14.9-0.5,50.3-4.2 c-130.4,7.4-53.5-0.4-184,7c-31.2,0.4-41.6-0.7-66.5-0.8c-24.9,0-64.2,0.8-153.2,5.7c-50.3,2.8-87.7,5-122.5,6.9 c-12.3,0.9-24.7,1.7-37.3,2.6c-12.6,0.9-25.3,1.8-38.3,2.7l1,34.3c26.3-0.1,53.2,0.5,80.9,1.5c27.7,1,56.1,2.4,85.4,4 c29.3,1.5,59.4,3.2,90.5,4.6c31.1,1.3,63.1,2.6,96.1,3.6c117.9,3.7,230.1,4.7,338.7,7C780.6,646.6,733.1,645.6,725.3,644.7z"/> <path class="st6" d="M938.2,631.6c13.5-0.6,22.9-0.9,28.4-0.9l0.3,16.8c-28.4-2.9,3.2-3.7-4.4-5.6c-1.9-0.5-6.3-1-14.6-1.7 c-4.2-0.3-9.4-0.7-15.7-1.1c-6.4-0.4-13.9-0.8-22.9-1.2c-35.8-1.7-93.9-3.7-186.6-5.5c-72.7-1.6-141.7-2.7-216.6-4.9 c-37.5-1.1-76.4-2.6-118-4.6c-41.6-2.1-85.9-5.1-134-7.8c38.5,1.8,59.1,2.7,67.3,2.8c8.2,0,4-0.7-7.1-1.8 c-22.1-2.2-71.7-5.8-104.4-6.6c-22.4-0.6-44.5-1-66-0.9l0.1,3.6c99.8-7.1,192.3-12.3,276.9-16.3c84.6-4,161.2-6.9,229.5-9.2 c56.3-2.5,62.3-0.8,109.7-2.1c-137.8,7.1-221.5,11.9-299.3,16.9c-19.4,1.3-38.5,2.5-57.9,3.7c-19.4,1.3-39.3,2.6-60.2,4 c-41.9,2.8-88.4,6-145.3,10c-10.3,0.9-29,2.1-52.7,3.6l-0.7-24.8c18,0.2,38.8,0.7,61,1.6c22.2,0.9,45.9,2.2,69.6,3.6 c47.3,2.8,94.8,6,131.4,7.3c47.7,1.8,86.6,2.5,117,2.8c15.2,0.2,28.3,0.2,39.4,0.2c11.1,0,20.1-0.1,27.1-0.3 c28.1-0.7,24.3-2.3-7.4-4.5c-35.6-1-71.3-2.1-107.2-3.5c-17.9-0.7-35.9-1.4-54-2.3c-18.1-0.8-36.1-1.8-54.2-2.8 c-72.6-4.1-146.5-9.5-222.5-10.1l1.2,40.6c13.9-0.9,28.8-1.8,43.8-2.7c15-0.9,30.2-1.8,45.7-2.8c8.8-0.7,18.3-1.4,28.3-2.2 c10.1-0.7,20.7-1.5,31.9-2.3c22.3-1.6,46.5-3.2,71.7-4.9c50.5-3.3,105.1-6.6,156.9-9.6c106.7-6.8-86,1.5-124.6,1.9 c68.1-3.1,148.2-6.4,218.6-9.5c70.4-3.1,131.2-6.2,160.8-8.9c59.2-5.4,157-11.2,207.4-15.8c33.3-2.8,39.5-4.3,24.4-4.6 c-15.1-0.3-51.6,0.6-103.7,2.5c-52.1,1.8-119.9,4.5-197.6,8.1c-77.7,3.6-165.3,7.9-257.2,13.5c-71.2,2.1,115.4-8.2,11.7-4.1 c-41.4,3.1-112.7,5.4-177.8,9.7c65.2-4.3-6-1.7,2.8-2.9c-32.5,2-112.7,6.3-121.5,7.7c-7.6,0.3-15.3,0.6-23.2,0.9l0.3,11.8 c26.4,0.8,54.3,2.1,84.1,3.7c29.9,1.7,61.7,3.8,96.1,5.9c34.3,2.1,71.1,4.2,110.7,5.7c39.6,1.5,82,2.6,127.6,3.4 c43,2.5,92.7,4.3,127.2,5.8c34.5,1.5,53.8,2.8,35.9,3.9c7.7,0.8,55.3,1.9,109.8,3.4c44.5,0.9,88.3,2.1,131.5,3.6l-0.4-25.2 c-39.9,3.3-79.3,6.4-118.4,9.1c18.8-0.9,36-1.7,51.2-2.4c7.6-0.3,14.7-0.6,21.2-0.9C926.8,632,932.8,631.8,938.2,631.6z"/> <path class="st7" d="M340.7,580.9c89-4.9,128.3-5.7,153.2-5.7c24.9,0.1,35.3,1.2,66.5,0.8c130.5-7.4,53.6,0.4,184-7 c-65.2,3.7-41.4,3-50.3,4.2c183.3-9.3,272.2-12.1,383.7-17l-0.3,12c-36-4.2-74.6-8.2-119.6-11.8c-5.9-0.5-4.2-0.6,2.1-0.3 c6.3,0.3,17.4,0.9,30.1,1.8c6.4,0.4,13.2,0.9,20.1,1.4c6.9,0.5,13.9,1.1,20.5,1.6c13.4,1,25.5,2.1,33.7,2.9 c-48.8-4.4-101.3-8.3-151.6-11.4c-50.3-3.1-98.5-5.5-138.5-7.4c-75.6-3.8-137.1-6.9-190.4-9.6c-53.4-2.9-98.6-5.4-141.7-7.7 c-31.1-1.8-50.6-3.3-56.5-4.6c-6-1.2,1.6-2.2,24.4-2.8c22.8-0.5,61-0.7,116.3,0.3c27.7,0.5,59.5,1.3,95.9,2.2 c36.4,0.9,77.3,2,123,3.5c-21.5-1.4-59.3-3.3-102.5-5.1c-43.2-1.8-91.8-3.8-134.8-5.6c-43.1-1.7-80.6-2.8-101.6-3.8 c-21-0.9-25.4-1.5-2.4-1.8c17.2-0.5,50.7-0.6,89.5-0.2c-46.7-1.6-96.6-2.8-148.6-3.9c-52-1-106-2-161.2-3l-1.1,0l-1,0.1 c-15.4,1.1-30.9,0.8-46.2-1.3l-2.1,44.7c151.9-6.9,308.7-15.3,447.9-20.9c8.1-1.4-0.3-2-40.1-0.8 c-75.6,2.1-121.4,3.1-151.3,3.3c-29.9,0.2-43.8-0.3-55.7-0.9c-23.8-1.3-39.5-2.9-158.3,0.1c-10.6,0.3-25.7,0.7-43.3,1.3l0.4-9 c15.2,2.3,32.5,3.1,49.9,2l0.2,0l0.2,0c49.4,1.5,99.8,2.7,113.5,3.2c54.9,2.5,51.1,4,47.4,5.5c-3.7,1.5-7.5,3,47.4,5.6 c-4.4,0.3,40.1,1.1,87.5,2.3c23.7,0.6,48.2,1.4,67.6,2.2c19.5,0.8,33.9,1.4,37.7,1.8c31.1,2.1,37.7,3.6,53.6,5.3 c15.9,1.7,41.1,3.4,109.2,6.2c142.4,6.2,246.7,14.7,329.2,24.9l0.8-32.7c-135.6,5.4-216.3,6.3-313,8.2 c-188.6,10.8-354.9,20.5-546,33.7C253,585.9,290.5,583.8,340.7,580.9z"/> <path class="st8" d="M784.2,463c39.3-3.1,77.7-6.1,115.2-10.6c4.7-0.5,9.4-1.2,14-1.8c4.7-0.6,9.3-1.2,14-1.9 c4.7-0.7,9.3-1.4,13.9-2.1c4.7-0.8,9.3-1.6,13.9-2.4l3.5-0.6l3.5-0.7c2.3-0.5,4.6-0.9,6.9-1.4c2.3-0.5,4.6-0.9,6.9-1.4 c2.3-0.6,4.6-1.1,7-1.7c9.2-2.1,18.6-4.8,27.9-7.8l-2.1,0.7l-2,0.6c-1.3,0.4-2.7,0.8-4,1.1c-2.7,0.8-5.4,1.5-8,2.2l-2,0.6 l-2,0.5c-1.3,0.3-2.6,0.6-3.9,0.9c-2.6,0.6-5.2,1.2-7.8,1.8c-1.3,0.3-2.6,0.6-3.9,0.9c-1.3,0.2-2.5,0.5-3.8,0.7 c-2.5,0.5-5.1,1-7.6,1.5c-5,1-10,1.8-14.9,2.6c-2.4,0.4-4.9,0.8-7.3,1.2c-2.4,0.4-4.8,0.7-7.2,1c-4.8,0.7-9.5,1.4-14.2,2 c-9.4,1.1-18.6,2.3-27.6,3.1c-9,1-17.8,1.7-26.5,2.5c-8.7,0.7-17.2,1.4-25.5,2c-16.7,1.2-32.7,2.2-48.2,3.2 c-15.4,1-30.3,1.8-44.4,2.8c-14.4,1-28.3,1.9-41.8,2.9c-13.5,0.8-26.5,1.7-39.1,2.4c-12.6,0.7-24.8,1.4-36.5,2 c-47.1,2.5-87.9,4-124.5,5c-18.3,0.5-35.6,0.8-52.1,1.1c-8.3,0.1-16.3,0.2-24.2,0.2c-4,0-7.9,0.1-11.7,0.1c-3.9,0-7.7,0-11.5,0 c-16.8,0-123,4.3-243.4,3.8l0.3-41.5c78.1,1.6,162.2,3.3,231.6,5.1c17.3,0.4,33.8,0.8,48.9,1.3c15.1,0.5,29,0.9,41.4,1.3 c24.7,0.8,43.2,1.5,52.8,2.2c-8.9,0.6-37.8,0.9-79.7,0.7c-21-0.2-45.1-0.5-71.7-0.7c-26.6-0.3-55.5-0.7-86-1.1 c50.8,1.5,95.9,2.9,136.5,4.3c40.4,1.5,76.3,2.6,108.8,3.7c64.9,2.1,115.9,4,161.7,6c45.8,2.1,86.5,4.3,130.8,6.9 c44.3,2.7,92.2,5.7,152.3,10.6l-0.3-2.7c-16.1,4.2-33.5,7.4-52.2,9.9c-18.7,2.5-38.6,4.3-59.9,5.8c-21.8,1.5-43.4,2.3-64.7,2.9 c-21.3,0.6-42.4,0.8-63.2,1c-41.5,0.3-81.7-0.2-120.4,0.2c-77.1,1.3-147.4,2.5-207.7,3.6c-120.7,2-201.6,2.1-218-0.8 c-3.1-0.9-30.4-0.5-73,0.5l-2.3,49.9c16.6,2.6,35.6,3.7,56,2.5l-2.4,0.1c88,3.3,209.3,5.8,316.7,10.3 c19.1,0.4,38.3,0.9,57.4,1.3c19.2,0.5,38.4,0.9,57.6,1.4c38.3,0.9,76.5,1.7,114.3,2.8c-54.3-2.9-104.4-5.4-144-7.7 c-39.7-2.3-68.6-4.3-81-5.7c-22.9-3.1-56.2-6.2-107.2-9.2c-25.5-1.5-55.4-3-90.7-4.5c-35.3-1.5-75.9-3-122.8-4.8l0.9,0 c-15.9,0.8-34,0.4-52.7-2.4l0.8-17.9c65.2-1.8,142.7-4.5,233.2-7.7c127.5-4.2,32.9,5.7,104.2,4c58.8-1.2,111.5-2,159.6-2.4 c24-0.1,47,0.2,69.2,0.4c22.1,0.3,43.4,0.5,64.1,0.7c41.3,0.2,80.1,0,118.3-1.9c19.1-0.9,38-2.2,57.1-4.4 c9.5-1,19.1-2.4,28.7-3.9c9.6-1.6,19.3-3.6,29.2-6l-3.7-33.9c-12.5-1.2-25.5-2.4-38.7-3.6c-6.6-0.6-13.3-1.1-20.1-1.7 c-3.4-0.3-6.8-0.6-10.2-0.8c-3.4-0.3-6.9-0.5-10.3-0.8c-18.4-1.6-47.1-3.6-83.3-5.5c-36.2-1.9-79.7-3.7-127.6-5.3 c-83.8-1.2-167.5-1.7-250.9-3.5l-125.6-2.6l-125.7-2.8c-12.6-0.2-24.7-0.4-36.2-0.6l-0.3,52.7c55.7,0.1,102.4-0.5,142-1.2 c9.9-0.2,19.4-0.4,28.4-0.6c9.1-0.2,17.7-0.4,26-0.6c8.3-0.2,16.2-0.4,23.7-0.6c7.5-0.2,14.7-0.4,21.6-0.6 c55-1.5,89.8-2.4,120.4-3.2c30.6-0.9,56.9-1.5,94.9-3.6c9.5-0.5,19.7-1.1,30.9-1.8c11.2-0.7,23.4-1.5,36.8-2.6 c6.7-0.5,13.7-1.1,21-1.6c7.3-0.6,15-1.2,23-1.9c7.9-0.7,16.3-1.4,25-2.1C765.6,464.5,774.7,463.7,784.2,463z"/> <path class="st9" d="M747.3,553.8c-68.1-2.9-93.3-4.6-109.2-6.2c-15.9-1.6-22.5-3.2-53.6-5.3c-3.7-0.4-18.2-1.1-37.7-1.8 c-19.5-0.8-43.9-1.5-67.6-2.2c-47.4-1.3-91.9-2-87.5-2.3c-54.8-2.6-51.1-4.1-47.4-5.6c3.7-1.5,7.5-3-47.4-5.5 c-13.6-0.5-64.1-1.7-113.5-3.2l-0.2,0l-0.2,0c-17.4,1.1-34.7,0.3-49.9-2l-0.4,9c17.6-0.6,32.7-1,43.3-1.3 c118.8-3,134.5-1.4,158.3-0.1c11.9,0.6,25.9,1.1,55.7,0.9c29.9-0.2,75.7-1.3,151.3-3.3c39.8-1.2,48.2-0.6,40.1,0.8 c0.7,0,1.5-0.1,2.3-0.1c-10,0.9-7.5,1.2,2.6,1.2c5,0,12-0.2,20.2-0.4c8.2-0.2,17.6-0.4,27.6-0.7c19.9-0.4,42.6-0.7,62.8-1 c20.2-0.3,37.9-0.6,48-0.8c53.5-1.1,98.9-2.8,139.6-6.1c20.4-1.6,39.7-3.7,58.3-6.4c18.6-2.7,36.7-6.2,54.8-11.2l-5.1-46.7 c-7.7-0.5-15.4-1-23.1-1.5l-11.5-0.8c-3.8-0.2-7.7-0.4-11.5-0.7c-7.7-0.4-15.4-0.9-23.2-1.3c-7.8-0.4-15.6-0.8-23.6-1.2 c-4-0.2-8-0.4-12.1-0.6c-4-0.2-8.1-0.3-12.3-0.5c-8.2-0.3-16.6-0.7-25.2-1c-17.2-0.6-35.2-1.3-54.3-1.8 c-31.3-0.8-62.6-1.4-93.9-1.8c47.9,1.6,91.4,3.4,127.6,5.3c36.2,1.9,64.9,3.9,83.3,5.5c3.5,0.3,6.9,0.5,10.3,0.8 c3.4,0.3,6.8,0.6,10.2,0.8c6.8,0.6,13.5,1.1,20.1,1.7c13.2,1.2,26.2,2.4,38.7,3.6l3.7,33.9c-9.8,2.5-19.5,4.4-29.2,6 c-9.6,1.5-19.2,2.9-28.7,3.9c-19.1,2.1-38,3.4-57.1,4.4c-38.2,1.8-77,2.1-118.3,1.9c-20.7-0.1-42-0.4-64.1-0.7 c-22.1-0.3-45.1-0.6-69.2-0.4c-48.2,0.4-100.8,1.2-159.6,2.4c-71.3,1.7,23.3-8.1-104.2-4c-90.5,3.2-168,5.9-233.2,7.7 l-0.8,17.9c18.7,2.8,36.9,3.3,52.7,2.4l-0.9,0c46.9,1.8,87.5,3.3,122.8,4.8c35.3,1.5,65.2,3,90.7,4.5c51,3,84.3,6.1,107.2,9.2 c12.4,1.4,41.4,3.4,81,5.7c39.6,2.3,89.7,4.8,144,7.7c32.1,0.9,63.9,1.8,95.5,3.1c31.6,1.2,62.9,2.6,93.8,4.3 c30.2,1.5,66.7,4.5,97.1,7.4c30.3,2.9,54.5,6,60.1,6.6l1.2-53c-0.9,0-1.4,0.1-1.4,0.1c-113.6,7-215.1,12.8-311.1,18.3 c96.7-1.9,177.4-2.8,313-8.2l-0.8,32.7C994,568.5,889.8,559.9,747.3,553.8z"/> <path class="st10" d="M783.9,354.9c-42.2-0.9-92.5-2-133.9-3.2c-60.7-1.6-86.6-2.9-104.3-3.8c-17.7-1-27.3-1.8-55.4-3l23.7,1.4 c-12.6-0.5-25.4-1.1-38-1.6c6.9,0.5,13.6,1,19.9,1.4c6.3,0.5,12.2,1,17.7,1.4c11,0.9,20.5,1.7,28.1,2.4 c15.2,1.5,23,2.7,20.7,3.6c72.8,2.7,134.5,4.7,161.7,6.4c48.4,3,90.3,5.9,135.2,8.9c44.9,3,92.8,6.1,153.4,9.8l5.4,31.9 c-7.1,2.3-14.4,4.9-21.9,6.7c-7.5,2.1-15.1,3.6-22.9,5.3c-3.9,0.8-7.9,1.4-11.9,2.2c-2,0.4-4,0.7-6,1.1c-2,0.3-4.1,0.6-6.1,0.9 c-4.1,0.6-8.2,1.2-12.5,1.9c-4.2,0.5-8.5,1.1-12.8,1.6c-34.5,4.3-72.5,7.1-115,9.7c-21.2,1.3-43.6,2.6-67,4.3 c-11.8,0.9-23.9,1.7-36.4,2.7c-12.5,0.9-25.2,1.7-38.4,2.7c-52.5,3.5-110.6,7-175.2,10.1c-13.5,0.6-25.2,1.1-35.3,1.5 c-10.1,0.4-18.6,0.6-25.7,0.7c-14.3,0.3-23.2,0.3-28.8,0c-11.2-0.5-9-1.7-9.8-2.8c-0.8-1.2-4.6-2.2-27.6-2.6 c-5.8-0.1-12.7-0.1-21.1-0.1c-8.4,0-18.3,0-29.9,0c-11.6,0.1-24.9,0.1-40.2,0.2c-7.6,0-15.8,0-24.4,0c-4.3,0-8.8,0-13.4,0 c-4.6,0-9.3,0-14.2,0c-8.6,0-17.8,0-27.6-0.1c-9.8-0.1-20.1-0.1-30.8-0.2l0,5.4c107.4,2.7,252,5.7,276.8,8.2 c5.2,0.9-0.8,1.6-9.4,2.3c-8.6,0.7-19.8,1.3-25.2,1.9c-5.4,0.7-4.9,1.4,9.8,2.4c14.7,0.9,44,2.3,95.9,3.5 c87.8,2,172.4,3.2,252.6,5.6c40.1,1.2,79.1,2.6,116.8,4.5c37.7,1.9,74.2,4.1,109.2,6.8l-4.3-38.7c-15.7,4.2-32,7.2-48.2,9.3 c-16.2,2.2-32.3,3.8-48.2,4.9c-31.7,2.3-62.3,3.3-91.4,3.8c-58.2,0.9-110.4,0-155.7-0.1c-5.7,0-11.2,0-16.7,0 c-5.4,0-10.7,0.1-15.8,0.1c-10.3,0.1-20.1,0.1-29.4,0.2c-18.6,0.1-35.1,0.1-49.5,0.1c-28.8-0.1-49-0.5-59.5-1.4 c-105,4-219.9,9.8-339.9,15.8l-3.1,65.5c19.1,2.5,38.5,2.9,57.6,1.4l-3,0.1c103.6,1.5,210.3,1.6,316.9,3.7 c-107.4-4.5-228.8-7.1-316.7-10.3l2.4-0.1c-20.5,1.2-39.4,0-56-2.5l2.3-49.9c42.5-1.1,69.9-1.4,73-0.5 c16.4,2.9,97.4,2.8,218,0.8c60.3-1,130.6-2.3,207.7-3.6c38.7-0.4,78.9,0,120.4-0.2c20.8-0.1,41.8-0.4,63.2-1 c21.3-0.6,42.9-1.4,64.7-2.9c21.3-1.4,41.2-3.3,59.9-5.8c18.7-2.4,36-5.7,52.2-9.9l0.3,2.7c-60.1-4.9-108-7.9-152.3-10.6 c-44.3-2.7-85-4.9-130.8-6.9c-45.8-2.1-96.8-3.9-161.7-6c-32.4-1.1-68.3-2.2-108.8-3.7c-40.5-1.4-85.6-2.8-136.5-4.3 c30.4,0.4,59.4,0.8,86,1.1c26.6,0.3,50.8,0.5,71.7,0.7c41.8,0.3,70.8,0,79.7-0.7c-9.6-0.7-28.1-1.4-52.8-2.2 c-12.3-0.4-26.3-0.8-41.4-1.3c-15.1-0.5-31.6-0.9-48.9-1.3c-69.4-1.7-153.5-3.5-231.6-5.1l-0.3,41.5 c120.5,0.5,226.6-3.8,243.4-3.8c3.8,0,7.7,0,11.5,0c3.9,0,7.8-0.1,11.7-0.1c7.9-0.1,16-0.2,24.2-0.2 c16.5-0.3,33.8-0.5,52.1-1.1c36.6-1,77.4-2.5,124.5-5c11.8-0.7,23.9-1.3,36.5-2c12.6-0.8,25.6-1.6,39.1-2.4 c13.4-0.9,27.4-1.9,41.8-2.9c14.1-1,29-1.8,44.4-2.8c15.5-1,31.5-1.9,48.2-3.2c8.3-0.6,16.9-1.3,25.5-2 c8.7-0.8,17.5-1.5,26.5-2.5c9-0.9,18.2-2,27.6-3.1c4.7-0.6,9.4-1.3,14.2-2c2.4-0.4,4.8-0.6,7.2-1c2.4-0.4,4.9-0.8,7.3-1.2 c4.9-0.8,9.8-1.6,14.9-2.6c2.5-0.5,5-1,7.6-1.5c1.3-0.2,2.5-0.5,3.8-0.7c1.3-0.2,2.6-0.6,3.9-0.9c2.6-0.6,5.2-1.2,7.8-1.8 c1.3-0.3,2.6-0.6,3.9-0.9l2-0.5l2-0.6c2.7-0.7,5.3-1.5,8-2.2c1.3-0.4,2.7-0.8,4-1.1l2-0.6l2.1-0.7c4.5-1.6,9-3.2,13.1-4.6 l-10.8-63.7C932.9,359.4,857.6,357.2,783.9,354.9z"/> <path class="st11" d="M511.1,480.2c-52-1.2-81.2-2.6-95.9-3.5c-14.8-0.9-15.2-1.7-9.8-2.4c5.4-0.7,16.6-1.3,25.2-1.9 c8.6-0.6,14.6-1.3,9.4-2.3c-24.8-2.5-169.4-5.5-276.8-8.2l0-5.4c10.7,0.1,21.1,0.1,30.8,0.2c9.8,0,19,0,27.6,0.1 c4.9,0,9.6,0,14.2,0c4.6,0,9.1,0,13.4,0c8.7,0,16.8,0,24.4,0c15.3-0.1,28.6-0.1,40.2-0.2c11.6-0.1,21.5-0.1,29.9,0 c8.4,0,15.4,0,21.1,0.1c23,0.4,26.8,1.4,27.6,2.6c0.8,1.2-1.4,2.4,9.8,2.8c5.6,0.2,14.5,0.3,28.8,0c7.2-0.2,15.6-0.4,25.7-0.7 c10.1-0.4,21.8-0.9,35.3-1.5c64.6-3.1,122.7-6.6,175.2-10.1c13.1-0.9,25.9-1.8,38.4-2.7c12.4-0.9,24.6-1.8,36.4-2.7 c23.4-1.7,45.8-2.9,67-4.3c42.5-2.6,80.5-5.4,115-9.7c4.3-0.6,8.6-1.1,12.8-1.6c4.2-0.6,8.4-1.3,12.5-1.9 c2-0.3,4.1-0.6,6.1-0.9c2-0.4,4-0.7,6-1.1c4-0.7,7.9-1.4,11.9-2.2c7.8-1.7,15.4-3.2,22.9-5.3c7.4-1.8,14.7-4.4,21.9-6.7 l-5.4-31.9c-60.6-3.7-108.5-6.8-153.4-9.8c-44.9-3-86.8-5.8-135.2-8.9c-27.2-1.7-88.8-3.8-161.7-6.4c-1.8,0.7-9.2,1.3-25,1.6 c-8.9,0.4,38.4,3.1,99.9,6c61.5,2.7,137.1,6.1,184.5,8.1c27.6,2.3,11.1,3.1-27.6,3.2c-38.7,0.1-99.5-0.5-160.4-1.4 c-18-0.2-36.7-0.3-55.5-0.5c-2.1-0.1-4.4-0.3-6.6-0.5c-16-0.3-31.5-0.6-45.9-0.8c41.2,2.2,80.8,4.3,117.4,6.2 c14,0.4,28.8,1,44.8,1.6c-6.5-0.1-14.7-0.3-23.4-0.5c50.7,2.6,94.1,5,124.1,7.1c23.1,1.9,59.7,3.9,104.6,6.1 c19.6,0.5,39.9,1.1,61.5,1.9c-20.5-0.6-34.2-0.9-44.3-1c30.8,1.5,65,3.1,101.6,4.9l-0.1-0.6c-18.1,6.7-37.6,11.1-57.4,14.7 c-19.9,3.5-40.2,6.1-60.6,8.3c-20.5,2.2-41,3.8-61.5,5.3c-20.5,1.4-40.8,2.7-60.8,3.9c-5,0.3-10,0.6-14.9,0.9 c-4.9,0.3-9.9,0.7-14.7,1c-9.8,0.7-19.4,1.4-28.9,2c-9.5,0.7-18.8,1.3-27.9,1.8c-9.1,0.6-18.1,1.2-26.8,1.7 c-35,2.1-66.6,3.5-93.1,4.5c-30.8,0.8-97.6,3.9-173.6,5.7c-38,0.9-78.3,1.6-117.5,1.7c-39.2,0.1-77.3-0.2-111-0.9l-0.2,27.5 c86.8,3.2,144.2,6.1,116.4,8c32.6,0.3,72.7,1.3,112.7,2.3c20,0.5,40.1,1,59.2,1.5c9.6,0.2,18.9,0.4,27.9,0.6 c9,0.1,17.6,0.3,25.8,0.3c-13.9,1-15.3,2.1-8.6,3.4c68.1,2.1,150,3.8,163,5c-13.2,1-68.8-0.2-123.4-1.1c4.9,0.3,10,0.7,15.4,1 c6.2,0.2,12.6,0.3,18.8,0.5c32.8,0.3,65.8,0.4,95.3,0.4c33.6-0.5,71.1-0.8,100.6-1c-12,0.8-51.4,1-100.6,1 c-17.5,0.3-33.7,0.5-47.1,0.9c35.4,0.9,71.9,1.8,110,2.8c38,1.1,77.6,2.2,118.9,3.9c8.4,0.2,16.7,0.4,24.8,0.6 c8.1,0.2,16.1,0.4,23.8,0.7c-3.3-0.1-6.7-0.2-10.1-0.3c-3.5-0.1-7-0.2-10.6-0.3c-7.2-0.2-14.7-0.3-22.3-0.5 c11.3,0.5,22.6,1,34.2,1.5c34.1,1,68.1,2.3,102,4l-6.7-60.6c-7.9,2.3-16.1,4.4-24.6,6.2c-8.5,1.7-17.1,3.4-25.9,4.7 c-17.5,2.8-35.5,4.8-53.6,6.5c-36.2,3.3-73,5.2-109.9,6.5c-20.8-0.2-42.6-0.4-65.5-0.7c-22.9-0.2-47-0.4-72.2,0 c-6.3,0.1-12.6,0.2-19,0.4c-6.3,0.1-12.7,0.3-19.2,0.4c-12.9,0.3-26,0.7-39.3,1.1c-26.6,0.8-54,1.7-82.1,2.8 c10.5,0.9,30.7,1.3,59.5,1.4c14.4,0.1,31,0,49.5-0.1c9.3-0.1,19.1-0.1,29.4-0.2c5.2,0,10.4-0.1,15.8-0.1c5.4,0,11,0,16.7,0 c45.3,0,97.4,1,155.7,0.1c29.1-0.5,59.7-1.5,91.4-3.8c15.8-1.2,32-2.7,48.2-4.9c16.2-2.2,32.5-5.2,48.2-9.3l4.3,38.7 c-35-2.7-71.5-4.9-109.2-6.8c-37.7-1.9-76.7-3.3-116.8-4.5C683.5,483.4,598.9,482.2,511.1,480.2z"/> </g> </g> </g> </g> </g> <ellipse class="st12" cx="292" cy="658.5" rx="259.9" ry="47.3"/> <ellipse class="st12" cx="847.8" cy="658.5" rx="259.9" ry="47.3"/> <path class="st13" d="M437.7,210.8c0,0,28.1,118.8-3.7,127.1c-31.8,8.3-25.7-1.4-25.7-1.4s-0.9-104-8-139.5"/> <path class="st14" d="M395.2,202.6c0,0-22.3-3.3-30.3,4.8c-8,8.1-30.8,11.4-30.8-8c0-19.4,10.9-33.7,42.6-26.6 c0,0-19.9-11.8-11.9-42.6c8-30.8,38.8-10.5,38.8-10.5s1.9-11.4,21.3-5.7c0,0-3.3-21.3,12.8-21.3c16.1,0,26.5,9.4,33.2,32.7 c6.7,23.2-10.9,25.6-10.9,25.6s17.1,22.7-9.9,41.7c0,0-2.3,19.4-26,21.4C400.4,215.8,395.2,202.6,395.2,202.6z"/> <path class="st14" d="M431.2,191.6c0,0-11.8,15.2-36,11"/> <path class="st14" d="M434.1,195.9c0,0,5.7,0,16.1-3.3"/> <path class="st14" d="M436.8,110.1c0,0-3.3,3.8,0,15.2"/> <path class="st15" d="M581.3,381.4l-6,11.4l16.4-4.8c0,0,39.3,23.8,69-20c29.7-43.8,19.7-33.8,19.7-33.8l-23.4,3.3 c0,0-17.4,42.7-54.4,23.6C565.7,342,581.3,381.4,581.3,381.4z"/> <path class="st16" d="M570.9,316.1c0,0-0.4-0.6-1.1-1.6c-5.7-7.9-32.7-41.2-53.8,2.3c0,0-25.2,10.4-5.9,37.1c0,0-9.6,34.9,26,34.1 c0,0,8.9,19.3,27.5,8.9c18.6-10.4,23,3,28.2-8.9c5.2-11.9,20.8-37.9,2.2-31.9C593.9,356.1,589.5,322.7,570.9,316.1z"/> <path class="st17" d="M516,316.8c0,0,0.7,31.9,23.8,31.9c23,0,15.7-24.5,15.7-24.5"/> <path class="st17" d="M510,353.9c0,0,29.7,17.1,29.7-5.2"/> <path class="st17" d="M571.7,356.1c0,0,0.7,18.6-23.8,18.6c-24.5,0-16.3-14.7-16.3-14.7"/> <path class="st17" d="M536,388.1c0,0,11.9,1.5,11.9-13.4"/> <line class="st17" x1="593.9" y1="356.1" x2="585.8" y2="376.9"/> <path class="st18" d="M798.6,581.3c0,0-7.2,1.3-7.2,9.7c0,0-38.7-13.2-63.5,3.5c-24.8,16.7,0.3,59.7,48.4,57.5 c48.1-2.2,62.5-10.1,67.9-27c5.3-17,6.3-29.5-7.2-32.4C836.9,592.7,834.4,574.7,798.6,581.3z"/> <path class="st19" d="M781.9,595.8c0,0,14,5.2,28,19.2"/> <path class="st15" d="M754.5,498.7l42.8,89.7c0,0,4.4,8.1,17.7,6.4c13.3-1.7,8.9-9.8,8.9-9.8l-32.6-79.6 C791.4,505.5,764,485.2,754.5,498.7z"/> <path class="st20" d="M844.2,625c5.3-17,6.3-29.5-7.2-32.4c0,0-0.2-1.2-1.1-2.9c-0.3,40.9-58.4,51.9-94.4,54.9 c9.3,5,21.2,8.1,34.8,7.5C824.4,649.8,838.8,642,844.2,625z"/> <path class="st19" d="M798.6,581.3c0,0-7.2,1.3-7.2,9.7c0,0-38.7-13.2-63.5,3.5c-24.8,16.7,0.3,59.7,48.4,57.5 c48.1-2.2,62.5-10.1,67.9-27c5.3-17,6.3-29.5-7.2-32.4C836.9,592.7,834.4,574.7,798.6,581.3z"/> <path class="st18" d="M855.2,584.5c0,0-17.9,5.7-11.6,19.2c0,0-23.6,31.4,24.2,59.4c47.8,28,103.7-1.3,103.7-18.2 c0-17-5.3-27.3-43.1-37.7c-37.7-10.4-33.9-10.4-33.9-10.4S896.9,579.8,855.2,584.5z"/> <path class="st19" d="M843.5,603.7c0,0,4.4,9.1,28.3,7.2c23.9-1.9,22.6-14.1,22.6-14.1"/> <path class="st19" d="M859.9,626.3c0,0,23.9-16.7,57.8-16.7"/> <path class="st15" d="M806.5,508.5l49,87.3c0,0,4.4,3.1,17,1.6c12.6-1.6,6.9-7.5,2.8-14.5c-4.1-6.9-34.4-80.3-34.4-80.3 S817.1,497.8,806.5,508.5z"/> <path class="st20" d="M867.7,663c47.8,28,103.7-1.3,103.7-18.2c0-5-0.5-9.4-2.1-13.4c-21.7,34.5-87.5,26.7-116,21.4 C857.2,656.2,861.9,659.7,867.7,663z"/> <path class="st19" d="M855.2,584.5c0,0-17.9,5.7-11.6,19.2c0,0-23.6,31.4,24.2,59.4c47.8,28,103.7-1.3,103.7-18.2 c0-17-5.3-27.3-43.1-37.7c-37.7-10.4-33.9-10.4-33.9-10.4S896.9,579.8,855.2,584.5z"/> <path class="st19" d="M791.4,591.1c0,0,1.9,15.4,26.4,13.8c24.5-1.6,19.2-12.3,19.2-12.3"/> <path class="st18" d="M338.2,581.3c0,0,7.2,1.3,7.2,9.7c0,0,38.7-13.2,63.5,3.5c24.8,16.7-0.3,59.7-48.4,57.5 c-48.1-2.2-62.5-10.1-67.9-27c-5.3-17-6.3-29.5,7.2-32.4C299.9,592.7,302.4,574.7,338.2,581.3z"/> <path class="st19" d="M354.9,595.8c0,0-14,5.2-28,19.2"/> <path class="st15" d="M382.3,498.7l-42.8,89.7c0,0-4.4,8.1-17.7,6.4c-13.3-1.7-8.9-9.8-8.9-9.8l32.6-79.6 C345.5,505.5,372.8,485.2,382.3,498.7z"/> <path class="st20" d="M292.7,625c-5.3-17-6.3-29.5,7.2-32.4c0,0,0.2-1.2,1.1-2.9c0.3,40.9,58.4,51.9,94.4,54.9 c-9.3,5-21.2,8.1-34.8,7.5C312.5,649.8,298,642,292.7,625z"/> <path class="st19" d="M338.2,581.3c0,0,7.2,1.3,7.2,9.7c0,0,38.7-13.2,63.5,3.5c24.8,16.7-0.3,59.7-48.4,57.5 c-48.1-2.2-62.5-10.1-67.9-27c-5.3-17-6.3-29.5,7.2-32.4C299.9,592.7,302.4,574.7,338.2,581.3z"/> <path class="st18" d="M281.7,584.5c0,0,17.9,5.7,11.6,19.2c0,0,23.6,31.4-24.2,59.4c-47.8,28-103.7-1.3-103.7-18.2 c0-17,5.3-27.3,43.1-37.7c37.7-10.4,33.9-10.4,33.9-10.4S239.9,579.8,281.7,584.5z"/> <path class="st19" d="M293.3,603.7c0,0-4.4,9.1-28.3,7.2c-23.9-1.9-22.6-14.1-22.6-14.1"/> <path class="st19" d="M277,626.3c0,0-23.9-16.7-57.8-16.7"/> <path class="st15" d="M330.4,508.5l-49,87.3c0,0-4.4,3.1-17,1.6c-12.6-1.6-6.9-7.5-2.8-14.5c4.1-6.9,34.4-80.3,34.4-80.3 S319.7,497.8,330.4,508.5z"/> <path class="st20" d="M269.1,663c-47.8,28-103.7-1.3-103.7-18.2c0-5,0.5-9.4,2.1-13.4c21.7,34.5,87.5,26.7,116,21.4 C279.6,656.2,274.9,659.7,269.1,663z"/> <path class="st19" d="M281.7,584.5c0,0,17.9,5.7,11.6,19.2c0,0,23.6,31.4-24.2,59.4c-47.8,28-103.7-1.3-103.7-18.2 c0-17,5.3-27.3,43.1-37.7c37.7-10.4,33.9-10.4,33.9-10.4S239.9,579.8,281.7,584.5z"/> <path class="st19" d="M345.5,591.1c0,0-1.9,15.4-26.4,13.8c-24.5-1.6-19.2-12.3-19.2-12.3"/> <polygon class="st21" points="636.2,252.9 844.8,265.7 844.8,532.8 636.2,484.9 "/> <polygon class="st22" points="636.2,252.9 766,240.9 962.6,246.9 844.8,265.7 "/> <polygon class="st23" points="962.6,246.9 962.6,466.8 844.8,532.8 844.8,265.7 "/> <polygon class="st24" points="500.6,252.9 292,265.7 292,532.8 500.6,484.9 "/> <polygon class="st25" points="500.6,252.9 370.9,240.9 174.2,246.9 292,265.7 "/> <polygon class="st26" points="174.2,246.9 174.2,466.8 292,532.8 292,265.7 "/> <line class="st27" x1="516" y1="277.5" x2="510" y2="224.2"/> <line class="st27" x1="533" y1="277.5" x2="539.7" y2="224.2"/> <line class="st27" x1="547.9" y1="281.9" x2="575.3" y2="237.3"/> <line class="st27" x1="567.4" y1="288.4" x2="598" y2="259.6"/> <line class="st27" x1="516" y1="414.8" x2="516" y2="461.6"/> <line class="st27" x1="530.3" y1="414.8" x2="547.9" y2="466"/> <line class="st27" x1="556.5" y1="411.9" x2="582.7" y2="454.8"/> <path class="st17" d="M432.6,170.9c0,0,8.7-16.3,7.8-25.9"/> <path class="st17" d="M425.6,169.6c0,0,13.6-6.3,18.1-23.6"/> <path class="st17" d="M419.8,168.3c0,0,13.2-11,13.5-22.3"/> <path class="st17" d="M415.2,167.2c0,0,11.3-13.8,8.5-25.1"/> <path class="st14" d="M460.1,150.8c-10.5,1.4-14.8-4.5-14.8-4.5s-0.4-3.6-1.4-6.6"/> <path class="st13" d="M966.7,426.2c0,0-40.2-4.5-69-27c-28.8-22.5,12.2-26,12.2-26s18.1,6.1,43.7,10.6"/> <path class="st14" d="M967.8,352.9c0,0,14.6-20.4,10.7-32.4c-3.9-12.1,4.3-36.3,23.6-26.4c19.3,9.8,27.8,27.8,4.7,55.7 c0,0,21.8-13.7,48.3,9.8c26.4,23.6-9.3,43.8-9.3,43.8s10.3,7.6-5.2,24c0,0,22.8,7.5,14.7,23.5c-8.2,16-22.8,21.5-49.2,16.3 c-26.4-5.1-19.8-23.8-19.8-23.8s-31.2,5.4-36.3-31c0,0-18.1-12.2-7.9-36.6C952,351.3,967.8,352.9,967.8,352.9z"/> <path class="st14" d="M960.4,394.1c0,0-9-19.4,7.4-41.2"/> <path class="st14" d="M1038.3,440.9c0,0-2.1-5.2-15-7.7"/> <path class="st28" d="M479.3,297l-54.5,24.3c0,0,67.7-3,66.4-2.9c-1.3,0.1-27.2-0.4-27.2-0.4l26.4-4.8c0,0-16.5-0.3-17.9-0.3 c-1.4,0.1-13.1-0.3-13.1-0.3l23.7-5.4l-14.3,0.2l16.8-5.9l-17.2,3.5L479.3,297z"/> <path class="st28" d="M315.4,307.7l57.2,17c0,0-67.5,5.9-66.2,5.8c1.3-0.1,26.9-3.9,26.9-3.9l-26.8-1.3c0,0,16.3-2.5,17.7-2.6 c1.4-0.1,13-2,13-2l-24.2-2.2l14.2-1.7l-17.4-3.6l17.5,1.2L315.4,307.7z"/> <path class="st28" d="M657.5,307l54.5,24.3c0,0-67.7-3-66.4-2.9c1.3,0.1,27.2-0.4,27.2-0.4l-26.4-4.8c0,0,16.5-0.3,17.9-0.3 c1.4,0.1,13.1-0.3,13.1-0.3l-23.7-5.4l14.3,0.2l-16.8-5.9l17.2,3.5L657.5,307z"/> <path class="st28" d="M821.5,317.7l-57.2,17c0,0,67.5,5.9,66.2,5.8c-1.3-0.1-26.9-3.9-26.9-3.9l26.8-1.3c0,0-16.3-2.5-17.7-2.6 c-1.4-0.1-13-2-13-2l24.2-2.2l-14.2-1.7l17.4-3.6l-17.5,1.2L821.5,317.7z"/> <g> <g> <rect x="380" y="48.8" transform="matrix(0.2808 -0.9598 0.9598 0.2808 140.1676 483.9135)" class="st29" width="26" height="199.2"/> <ellipse transform="matrix(0.3283 -0.9446 0.9446 0.3283 161.8869 580.2844)" class="st29" cx="488.9" cy="176.3" rx="13.1" ry="6.3"/> </g> <g> <path class="st30" d="M202.4,158.3L202.4,158.3c-2.2,7.5,14.6,19,37.4,25.7c22.9,6.7,43.2,6,45.4-1.4l0,0l35.4-120.9l-82.8-24.2 L202.4,158.3z"/> <ellipse transform="matrix(0.2808 -0.9598 0.9598 0.2808 153.2328 303.5583)" class="st29" cx="279.2" cy="49.5" rx="14.1" ry="43.1"/> </g> </g> <path class="st14" d="M425,113.9c0,0,20.9,11.8,20.9,40.3c0,28.4-18.3,27.3-26.2,19.4"/> <path class="st14" d="M373.5,126.7c0,0,12.7,54.1,32.6,56c19.9,1.9,27.4-47-2.5-63"/> <g> <g> <rect x="917.2" y="376.2" transform="matrix(0.1732 -0.9849 0.9849 0.1732 457.3711 1323.1887)" class="st29" width="199.2" height="26"/> <ellipse transform="matrix(0.1239 -0.9923 0.9923 0.1239 391.657 1418.7689)" class="st29" cx="999.3" cy="487.6" rx="6.3" ry="13.1"/> </g> <g> <path class="st30" d="M1110,222.7L1110,222.7c7.7,1.4,10.6,21.5,6.4,44.9c-4.1,23.5-13.7,41.4-21.4,40l0,0l-124-21.8l14.9-85 L1110,222.7z"/> <ellipse transform="matrix(0.1731 -0.9849 0.9849 0.1731 569.399 1164.9396)" class="st29" cx="978.5" cy="243.4" rx="43.1" ry="14.1"/> </g> </g> <path class="st14" d="M1033.2,366.2c0,0-39.3-11.2-51.2,7.6c-12,18.8,32.6,51,63.6,29.5"/> <path class="st14" d="M1040.5,427.3c0,0-22.3,14.7-50.5,0.3c-28.2-14.4-17.8-31.9-5.9-35.8c0,0,17.4,22.9,47.6,17.6"/> <path class="st14" d="M1026,468.9c-11.6,2.1-29.4-4.7-29.4-4.7c-13.9-6.3-11.2-15.4-11.2-15.4s-0.3-16.4,12.1-17.9 c0,0,14.3,5.2,22.3,2.9l3.4-0.4"/> <g> <path class="st15" d="M209.5,461.4l8.5-27.6l13.4-6.3l14.5-21.2l-15.1-7.3c0,0-0.9,2.3-14.3,6.4c-13.4,4.1-44.3,11.2-49.2,21.2 C162.5,436.6,159.1,455.4,209.5,461.4z M194.7,421c7.6,1.1,15.8,5.2,15.8,5.2C201.1,428,187.1,419.8,194.7,421z"/> <path class="st31" d="M233.6,409.8c0,0-1.8-11-5.8-18.1c-4-7-1.5-22.5,11.5-22.5c13,0,38.8,20.1,28,48c0,0,4,17.2,25.1,26.4 c21.2,9.2,48.4,12,53.6,24.5c0,0,12-0.6,12,12c0,12.6-16.2,20.2-40.5,20.2c0,0-3.7,8.6-28.5,6.7c-24.8-1.8-50.6-14.4-61.6-34.3 c0,0-15.6,2.1-19.3-15.9c-3.7-18.1,2.1-35.6,19-37.4C227.1,419.3,231.1,416.8,233.6,409.8z"/> <path class="st31" d="M346.1,468c0,0,8.3,21.2-17.5,21.2c-25.8,0-52.7-17.8-52.7-17.8"/> <path class="st31" d="M317.6,500.2c0,0-28.8,2.2-43.2-9.8"/> <line class="st31" x1="223.8" y1="450.9" x2="242.2" y2="461.9"/> <line class="st31" x1="226.2" y1="461.9" x2="248.6" y2="476.6"/> <line class="st31" x1="230.2" y1="472.9" x2="243.7" y2="481.8"/> <path class="st31" d="M227.1,419.3c0,0-14.4,27.6,0.3,53.3"/> <path class="st31" d="M267.3,417.1c0,0-0.9,2.8-5.8,4.9"/> </g> </svg>